<mxfile host="app.diagrams.net" modified="2023-04-02T17:39:07.932Z" agent="Mozilla/5.0 (Windows NT 10.0; Win64; x64) AppleWebKit/537.36 (KHTML, like Gecko) Chrome/111.0.0.0 Safari/537.36" etag="qbfi1UWwYnN6scMRNS3j" version="21.1.2" type="device">
  <diagram name="Pagina-1" id="-qD4IdUJIzJ_jDmtv6O7">
    <mxGraphModel dx="1134" dy="544" grid="0" gridSize="10" guides="1" tooltips="1" connect="1" arrows="1" fold="1" page="1" pageScale="1" pageWidth="1169" pageHeight="827" math="0" shadow="0">
      <root>
        <mxCell id="0" />
        <mxCell id="1" parent="0" />
        <mxCell id="UeiCvnaCmBWgxlPloV5k-1" value="Attori" style="ellipse;whiteSpace=wrap;html=1;" parent="1" vertex="1">
          <mxGeometry x="508" y="374" width="153" height="80" as="geometry" />
        </mxCell>
        <mxCell id="UeiCvnaCmBWgxlPloV5k-4" value="Giocatori" style="whiteSpace=wrap;html=1;shape=partialRectangle;top=0;left=0;bottom=1;right=0;points=[[0,1],[1,1]];fillColor=none;align=center;verticalAlign=bottom;routingCenterY=0.5;snapToPoint=1;recursiveResize=0;autosize=1;treeFolding=1;treeMoving=1;newEdgeStyle={&quot;edgeStyle&quot;:&quot;entityRelationEdgeStyle&quot;,&quot;startArrow&quot;:&quot;none&quot;,&quot;endArrow&quot;:&quot;none&quot;,&quot;segment&quot;:10,&quot;curved&quot;:1,&quot;sourcePerimeterSpacing&quot;:0,&quot;targetPerimeterSpacing&quot;:0};" parent="1" vertex="1">
          <mxGeometry x="700" y="315" width="83" height="26" as="geometry" />
        </mxCell>
        <mxCell id="UeiCvnaCmBWgxlPloV5k-5" value="" style="edgeStyle=entityRelationEdgeStyle;startArrow=none;endArrow=none;segment=10;curved=1;sourcePerimeterSpacing=0;targetPerimeterSpacing=0;rounded=0;exitX=1;exitY=0.5;exitDx=0;exitDy=0;" parent="1" source="UeiCvnaCmBWgxlPloV5k-1" target="UeiCvnaCmBWgxlPloV5k-4" edge="1">
          <mxGeometry relative="1" as="geometry">
            <mxPoint x="339" y="386" as="sourcePoint" />
          </mxGeometry>
        </mxCell>
        <mxCell id="UeiCvnaCmBWgxlPloV5k-12" value="Gestore" style="whiteSpace=wrap;html=1;shape=partialRectangle;top=0;left=0;bottom=1;right=0;points=[[0,1],[1,1]];fillColor=none;align=center;verticalAlign=bottom;routingCenterY=0.5;snapToPoint=1;recursiveResize=0;autosize=1;treeFolding=1;treeMoving=1;newEdgeStyle={&quot;edgeStyle&quot;:&quot;entityRelationEdgeStyle&quot;,&quot;startArrow&quot;:&quot;none&quot;,&quot;endArrow&quot;:&quot;none&quot;,&quot;segment&quot;:10,&quot;curved&quot;:1,&quot;sourcePerimeterSpacing&quot;:0,&quot;targetPerimeterSpacing&quot;:0};" parent="1" vertex="1">
          <mxGeometry x="372" y="315" width="78" height="26" as="geometry" />
        </mxCell>
        <mxCell id="UeiCvnaCmBWgxlPloV5k-13" value="" style="edgeStyle=entityRelationEdgeStyle;startArrow=none;endArrow=none;segment=10;curved=1;sourcePerimeterSpacing=0;targetPerimeterSpacing=0;rounded=0;exitX=0;exitY=0.5;exitDx=0;exitDy=0;" parent="1" source="UeiCvnaCmBWgxlPloV5k-1" target="UeiCvnaCmBWgxlPloV5k-12" edge="1">
          <mxGeometry relative="1" as="geometry">
            <mxPoint x="384" y="356" as="sourcePoint" />
          </mxGeometry>
        </mxCell>
        <mxCell id="UeiCvnaCmBWgxlPloV5k-16" value="Ruoli" style="whiteSpace=wrap;html=1;shape=partialRectangle;top=0;left=0;bottom=1;right=0;points=[[0,1],[1,1]];fillColor=none;align=center;verticalAlign=bottom;routingCenterY=0.5;snapToPoint=1;recursiveResize=0;autosize=1;treeFolding=1;treeMoving=1;newEdgeStyle={&quot;edgeStyle&quot;:&quot;entityRelationEdgeStyle&quot;,&quot;startArrow&quot;:&quot;none&quot;,&quot;endArrow&quot;:&quot;none&quot;,&quot;segment&quot;:10,&quot;curved&quot;:1,&quot;sourcePerimeterSpacing&quot;:0,&quot;targetPerimeterSpacing&quot;:0};" parent="1" vertex="1">
          <mxGeometry x="233" y="315" width="62" height="26" as="geometry" />
        </mxCell>
        <mxCell id="UeiCvnaCmBWgxlPloV5k-17" value="" style="edgeStyle=entityRelationEdgeStyle;startArrow=none;endArrow=none;segment=10;curved=1;sourcePerimeterSpacing=0;targetPerimeterSpacing=0;rounded=0;exitX=0;exitY=1;exitDx=0;exitDy=0;" parent="1" source="UeiCvnaCmBWgxlPloV5k-12" target="UeiCvnaCmBWgxlPloV5k-16" edge="1">
          <mxGeometry relative="1" as="geometry">
            <mxPoint x="166" y="356" as="sourcePoint" />
          </mxGeometry>
        </mxCell>
        <mxCell id="UeiCvnaCmBWgxlPloV5k-18" value="Moderatore" style="whiteSpace=wrap;html=1;shape=partialRectangle;top=0;left=0;bottom=1;right=0;points=[[0,1],[1,1]];fillColor=none;align=center;verticalAlign=bottom;routingCenterY=0.5;snapToPoint=1;recursiveResize=0;autosize=1;treeFolding=1;treeMoving=1;newEdgeStyle={&quot;edgeStyle&quot;:&quot;entityRelationEdgeStyle&quot;,&quot;startArrow&quot;:&quot;none&quot;,&quot;endArrow&quot;:&quot;none&quot;,&quot;segment&quot;:10,&quot;curved&quot;:1,&quot;sourcePerimeterSpacing&quot;:0,&quot;targetPerimeterSpacing&quot;:0};" parent="1" vertex="1">
          <mxGeometry x="104" y="268" width="96" height="26" as="geometry" />
        </mxCell>
        <mxCell id="UeiCvnaCmBWgxlPloV5k-19" value="" style="edgeStyle=entityRelationEdgeStyle;startArrow=none;endArrow=none;segment=10;curved=1;sourcePerimeterSpacing=0;targetPerimeterSpacing=0;rounded=0;exitX=0;exitY=1;exitDx=0;exitDy=0;" parent="1" source="UeiCvnaCmBWgxlPloV5k-16" target="UeiCvnaCmBWgxlPloV5k-18" edge="1">
          <mxGeometry relative="1" as="geometry">
            <mxPoint x="128" y="295" as="sourcePoint" />
          </mxGeometry>
        </mxCell>
        <mxCell id="UeiCvnaCmBWgxlPloV5k-23" value="Amministratore" style="whiteSpace=wrap;html=1;shape=partialRectangle;top=0;left=0;bottom=1;right=0;points=[[0,1],[1,1]];fillColor=none;align=center;verticalAlign=bottom;routingCenterY=0.5;snapToPoint=1;recursiveResize=0;autosize=1;treeFolding=1;treeMoving=1;newEdgeStyle={&quot;edgeStyle&quot;:&quot;entityRelationEdgeStyle&quot;,&quot;startArrow&quot;:&quot;none&quot;,&quot;endArrow&quot;:&quot;none&quot;,&quot;segment&quot;:10,&quot;curved&quot;:1,&quot;sourcePerimeterSpacing&quot;:0,&quot;targetPerimeterSpacing&quot;:0};" parent="1" vertex="1">
          <mxGeometry x="83" y="388" width="116" height="26" as="geometry" />
        </mxCell>
        <mxCell id="UeiCvnaCmBWgxlPloV5k-24" value="" style="edgeStyle=entityRelationEdgeStyle;startArrow=none;endArrow=none;segment=10;curved=1;sourcePerimeterSpacing=0;targetPerimeterSpacing=0;rounded=0;exitX=0;exitY=1;exitDx=0;exitDy=0;" parent="1" source="UeiCvnaCmBWgxlPloV5k-16" target="UeiCvnaCmBWgxlPloV5k-23" edge="1">
          <mxGeometry relative="1" as="geometry">
            <mxPoint x="227" y="363" as="sourcePoint" />
          </mxGeometry>
        </mxCell>
        <mxCell id="UeiCvnaCmBWgxlPloV5k-25" value="Servizi Esterni" style="whiteSpace=wrap;html=1;shape=partialRectangle;top=0;left=0;bottom=1;right=0;points=[[0,1],[1,1]];fillColor=none;align=center;verticalAlign=bottom;routingCenterY=0.5;snapToPoint=1;recursiveResize=0;autosize=1;treeFolding=1;treeMoving=1;newEdgeStyle={&quot;edgeStyle&quot;:&quot;entityRelationEdgeStyle&quot;,&quot;startArrow&quot;:&quot;none&quot;,&quot;endArrow&quot;:&quot;none&quot;,&quot;segment&quot;:10,&quot;curved&quot;:1,&quot;sourcePerimeterSpacing&quot;:0,&quot;targetPerimeterSpacing&quot;:0};" parent="1" vertex="1">
          <mxGeometry x="685" y="527" width="112" height="26" as="geometry" />
        </mxCell>
        <mxCell id="UeiCvnaCmBWgxlPloV5k-26" value="" style="edgeStyle=entityRelationEdgeStyle;startArrow=none;endArrow=none;segment=10;curved=1;sourcePerimeterSpacing=0;targetPerimeterSpacing=0;rounded=0;entryX=0;entryY=1;entryDx=0;entryDy=0;" parent="1" source="UeiCvnaCmBWgxlPloV5k-1" target="UeiCvnaCmBWgxlPloV5k-25" edge="1">
          <mxGeometry relative="1" as="geometry">
            <mxPoint x="819" y="623" as="sourcePoint" />
          </mxGeometry>
        </mxCell>
        <mxCell id="UeiCvnaCmBWgxlPloV5k-29" value="Servizio Internet Geografico (GPS)" style="whiteSpace=wrap;html=1;shape=partialRectangle;top=0;left=0;bottom=1;right=0;points=[[0,1],[1,1]];fillColor=none;align=center;verticalAlign=bottom;routingCenterY=0.5;snapToPoint=1;recursiveResize=0;autosize=1;treeFolding=1;treeMoving=1;newEdgeStyle={&quot;edgeStyle&quot;:&quot;entityRelationEdgeStyle&quot;,&quot;startArrow&quot;:&quot;none&quot;,&quot;endArrow&quot;:&quot;none&quot;,&quot;segment&quot;:10,&quot;curved&quot;:1,&quot;sourcePerimeterSpacing&quot;:0,&quot;targetPerimeterSpacing&quot;:0};" parent="1" vertex="1">
          <mxGeometry x="878" y="478" width="220" height="26" as="geometry" />
        </mxCell>
        <mxCell id="UeiCvnaCmBWgxlPloV5k-30" value="" style="edgeStyle=entityRelationEdgeStyle;startArrow=none;endArrow=none;segment=10;curved=1;sourcePerimeterSpacing=0;targetPerimeterSpacing=0;rounded=0;exitX=1;exitY=1;exitDx=0;exitDy=0;" parent="1" source="UeiCvnaCmBWgxlPloV5k-25" target="UeiCvnaCmBWgxlPloV5k-29" edge="1">
          <mxGeometry relative="1" as="geometry">
            <mxPoint x="801" y="550" as="sourcePoint" />
          </mxGeometry>
        </mxCell>
        <mxCell id="UeiCvnaCmBWgxlPloV5k-31" value="Open Street Map" style="whiteSpace=wrap;html=1;shape=partialRectangle;top=0;left=0;bottom=1;right=0;points=[[0,1],[1,1]];fillColor=none;align=center;verticalAlign=bottom;routingCenterY=0.5;snapToPoint=1;recursiveResize=0;autosize=1;treeFolding=1;treeMoving=1;newEdgeStyle={&quot;edgeStyle&quot;:&quot;entityRelationEdgeStyle&quot;,&quot;startArrow&quot;:&quot;none&quot;,&quot;endArrow&quot;:&quot;none&quot;,&quot;segment&quot;:10,&quot;curved&quot;:1,&quot;sourcePerimeterSpacing&quot;:0,&quot;targetPerimeterSpacing&quot;:0};" parent="1" vertex="1">
          <mxGeometry x="878" y="581" width="126" height="26" as="geometry" />
        </mxCell>
        <mxCell id="UeiCvnaCmBWgxlPloV5k-32" value="" style="edgeStyle=entityRelationEdgeStyle;startArrow=none;endArrow=none;segment=10;curved=1;sourcePerimeterSpacing=0;targetPerimeterSpacing=0;rounded=0;exitX=1;exitY=1;exitDx=0;exitDy=0;" parent="1" source="UeiCvnaCmBWgxlPloV5k-25" target="UeiCvnaCmBWgxlPloV5k-31" edge="1">
          <mxGeometry relative="1" as="geometry">
            <mxPoint x="860" y="627" as="sourcePoint" />
          </mxGeometry>
        </mxCell>
        <mxCell id="L0YIjs_zJPV3WDV3Mrev-7" value="" style="edgeStyle=entityRelationEdgeStyle;startArrow=none;endArrow=none;segment=10;curved=1;sourcePerimeterSpacing=0;targetPerimeterSpacing=0;rounded=0;exitX=0;exitY=0.5;exitDx=0;exitDy=0;entryX=1;entryY=1;entryDx=0;entryDy=0;" parent="1" source="UeiCvnaCmBWgxlPloV5k-1" target="L0YIjs_zJPV3WDV3Mrev-8" edge="1">
          <mxGeometry relative="1" as="geometry">
            <mxPoint x="460" y="437" as="sourcePoint" />
            <mxPoint x="393" y="489" as="targetPoint" />
          </mxGeometry>
        </mxCell>
        <mxCell id="L0YIjs_zJPV3WDV3Mrev-11" style="edgeStyle=entityRelationEdgeStyle;rounded=0;orthogonalLoop=1;jettySize=auto;html=1;startArrow=none;endArrow=none;segment=10;curved=1;sourcePerimeterSpacing=0;targetPerimeterSpacing=0;exitX=0;exitY=1;exitDx=0;exitDy=0;entryX=1;entryY=1;entryDx=0;entryDy=0;" parent="1" source="L0YIjs_zJPV3WDV3Mrev-8" target="L0YIjs_zJPV3WDV3Mrev-9" edge="1">
          <mxGeometry relative="1" as="geometry" />
        </mxCell>
        <mxCell id="L0YIjs_zJPV3WDV3Mrev-8" value="Servizi Interni" style="whiteSpace=wrap;html=1;shape=partialRectangle;top=0;left=0;bottom=1;right=0;points=[[0,1],[1,1]];fillColor=none;align=center;verticalAlign=bottom;routingCenterY=0.5;snapToPoint=1;recursiveResize=0;autosize=1;treeFolding=1;treeMoving=1;newEdgeStyle={&quot;edgeStyle&quot;:&quot;entityRelationEdgeStyle&quot;,&quot;startArrow&quot;:&quot;none&quot;,&quot;endArrow&quot;:&quot;none&quot;,&quot;segment&quot;:10,&quot;curved&quot;:1,&quot;sourcePerimeterSpacing&quot;:0,&quot;targetPerimeterSpacing&quot;:0};" parent="1" vertex="1">
          <mxGeometry x="360" y="527" width="108" height="26" as="geometry" />
        </mxCell>
        <mxCell id="L0YIjs_zJPV3WDV3Mrev-9" value="Database" style="whiteSpace=wrap;html=1;shape=partialRectangle;top=0;left=0;bottom=1;right=0;points=[[0,1],[1,1]];fillColor=none;align=center;verticalAlign=bottom;routingCenterY=0.5;snapToPoint=1;recursiveResize=0;autosize=1;treeFolding=1;treeMoving=1;newEdgeStyle={&quot;edgeStyle&quot;:&quot;entityRelationEdgeStyle&quot;,&quot;startArrow&quot;:&quot;none&quot;,&quot;endArrow&quot;:&quot;none&quot;,&quot;segment&quot;:10,&quot;curved&quot;:1,&quot;sourcePerimeterSpacing&quot;:0,&quot;targetPerimeterSpacing&quot;:0};" parent="1" vertex="1">
          <mxGeometry x="192" y="527" width="86" height="26" as="geometry" />
        </mxCell>
        <mxCell id="J93mUOtVPE37R7BZEjWw-2" style="edgeStyle=entityRelationEdgeStyle;rounded=0;orthogonalLoop=1;jettySize=auto;html=1;startArrow=none;endArrow=none;segment=10;curved=1;sourcePerimeterSpacing=0;targetPerimeterSpacing=0;entryX=0;entryY=1;entryDx=0;entryDy=0;" edge="1" parent="1" source="J93mUOtVPE37R7BZEjWw-1" target="L0YIjs_zJPV3WDV3Mrev-8">
          <mxGeometry relative="1" as="geometry" />
        </mxCell>
        <mxCell id="J93mUOtVPE37R7BZEjWw-1" value="Servizio di Autenticazione" style="whiteSpace=wrap;html=1;shape=partialRectangle;top=0;left=0;bottom=1;right=0;points=[[0,1],[1,1]];fillColor=none;align=center;verticalAlign=bottom;routingCenterY=0.5;snapToPoint=1;recursiveResize=0;autosize=1;treeFolding=1;treeMoving=1;newEdgeStyle={&quot;edgeStyle&quot;:&quot;entityRelationEdgeStyle&quot;,&quot;startArrow&quot;:&quot;none&quot;,&quot;endArrow&quot;:&quot;none&quot;,&quot;segment&quot;:10,&quot;curved&quot;:1,&quot;sourcePerimeterSpacing&quot;:0,&quot;targetPerimeterSpacing&quot;:0};" vertex="1" parent="1">
          <mxGeometry x="121" y="581" width="172" height="26" as="geometry" />
        </mxCell>
        <mxCell id="J93mUOtVPE37R7BZEjWw-4" style="edgeStyle=entityRelationEdgeStyle;rounded=0;orthogonalLoop=1;jettySize=auto;html=1;startArrow=none;endArrow=none;segment=10;curved=1;sourcePerimeterSpacing=0;targetPerimeterSpacing=0;entryX=0;entryY=1;entryDx=0;entryDy=0;" edge="1" parent="1" source="J93mUOtVPE37R7BZEjWw-3" target="L0YIjs_zJPV3WDV3Mrev-8">
          <mxGeometry relative="1" as="geometry" />
        </mxCell>
        <mxCell id="J93mUOtVPE37R7BZEjWw-3" value="Game engine" style="whiteSpace=wrap;html=1;shape=partialRectangle;top=0;left=0;bottom=1;right=0;points=[[0,1],[1,1]];fillColor=none;align=center;verticalAlign=bottom;routingCenterY=0.5;snapToPoint=1;recursiveResize=0;autosize=1;treeFolding=1;treeMoving=1;newEdgeStyle={&quot;edgeStyle&quot;:&quot;entityRelationEdgeStyle&quot;,&quot;startArrow&quot;:&quot;none&quot;,&quot;endArrow&quot;:&quot;none&quot;,&quot;segment&quot;:10,&quot;curved&quot;:1,&quot;sourcePerimeterSpacing&quot;:0,&quot;targetPerimeterSpacing&quot;:0};" vertex="1" parent="1">
          <mxGeometry x="192" y="475" width="107" height="26" as="geometry" />
        </mxCell>
        <mxCell id="J93mUOtVPE37R7BZEjWw-6" style="edgeStyle=entityRelationEdgeStyle;rounded=0;orthogonalLoop=1;jettySize=auto;html=1;startArrow=none;endArrow=none;segment=10;curved=1;sourcePerimeterSpacing=0;targetPerimeterSpacing=0;entryX=1;entryY=1;entryDx=0;entryDy=0;" edge="1" parent="1" source="J93mUOtVPE37R7BZEjWw-5" target="UeiCvnaCmBWgxlPloV5k-25">
          <mxGeometry relative="1" as="geometry" />
        </mxCell>
        <mxCell id="J93mUOtVPE37R7BZEjWw-5" value="Fotocamera" style="whiteSpace=wrap;html=1;shape=partialRectangle;top=0;left=0;bottom=1;right=0;points=[[0,1],[1,1]];fillColor=none;align=center;verticalAlign=bottom;routingCenterY=0.5;snapToPoint=1;recursiveResize=0;autosize=1;treeFolding=1;treeMoving=1;newEdgeStyle={&quot;edgeStyle&quot;:&quot;entityRelationEdgeStyle&quot;,&quot;startArrow&quot;:&quot;none&quot;,&quot;endArrow&quot;:&quot;none&quot;,&quot;segment&quot;:10,&quot;curved&quot;:1,&quot;sourcePerimeterSpacing&quot;:0,&quot;targetPerimeterSpacing&quot;:0};" vertex="1" parent="1">
          <mxGeometry x="880" y="527" width="99" height="26" as="geometry" />
        </mxCell>
      </root>
    </mxGraphModel>
  </diagram>
</mxfile>
